<svg xmlns="http://www.w3.org/2000/svg" viewBox="0 0 106.26 25.8"><title>アセット 11</title><g id="レイヤー_2" data-name="レイヤー 2"><g id="レイヤー_1-2" data-name="レイヤー 1"><path d="M4.23,5.16,3.57,5l.1-.5a2.37,2.37,0,0,1-1.76.3A2.41,2.41,0,0,1,.05,2,2.4,2.4,0,0,1,2.88.05a2.34,2.34,0,0,1,1.5,1L4.49.5l.66.13Zm-.4-1.42.39-1.95A1.87,1.87,0,0,0,2.84.65,1.8,1.8,0,0,0,.73,2.09,1.8,1.8,0,0,0,2.11,4.25,1.9,1.9,0,0,0,3.83,3.74Z"/><path d="M10.69,3.76l-.53,2.6L9.5,6.23,10,3.65A1.36,1.36,0,0,0,8.94,1.89a2,2,0,0,0-1.73.53L6.56,5.63,5.89,5.5,6.81,1l.67.14-.11.54A2.32,2.32,0,0,1,9.18,1.3,1.92,1.92,0,0,1,10.69,3.76Z"/><path d="M16,7.56l-.67-.14.11-.5a2.37,2.37,0,0,1-1.76.29,2.41,2.41,0,0,1-1.86-2.86,2.39,2.39,0,0,1,2.82-1.9,2.28,2.28,0,0,1,1.51.95l.6-2.93.67.13Zm-.4-1.43L16,4.19A1.86,1.86,0,0,0,14.63,3a1.84,1.84,0,0,0-.73,3.6A1.9,1.9,0,0,0,15.62,6.13Z"/><path d="M28.26,7.33l-.53,2.61-.67-.14.53-2.57a1.31,1.31,0,0,0-1-1.75A1.7,1.7,0,0,0,25,6.06a3.19,3.19,0,0,1-.06.59l-.53,2.61-.67-.14.53-2.58a1.31,1.31,0,0,0-1-1.74,1.69,1.69,0,0,0-1.57.54L21,8.57l-.67-.14.93-4.52.66.13-.1.52a1.92,1.92,0,0,1,1.65-.35,1.78,1.78,0,0,1,1.38,1.15,2.27,2.27,0,0,1,2-.47A1.89,1.89,0,0,1,28.26,7.33Z"/><path d="M30.48,4a.48.48,0,0,1,.93.19.46.46,0,0,1-.56.36A.47.47,0,0,1,30.48,4ZM30,10.4l-.67-.13.92-4.53.67.14Z"/><path d="M36.6,9l-.53,2.61-.67-.14.53-2.58a1.36,1.36,0,0,0-1.08-1.76,2,2,0,0,0-1.73.53l-.65,3.21-.67-.13.92-4.53.67.14-.11.54a2.36,2.36,0,0,1,1.81-.35A1.92,1.92,0,0,1,36.6,9Z"/><path d="M41.93,12.83l-.67-.14.11-.5a2.43,2.43,0,1,1-.8-4.47,2.28,2.28,0,0,1,1.51,1l.6-2.93.66.13Zm-.4-1.43.39-1.94a1.86,1.86,0,0,0-1.38-1.15,1.84,1.84,0,0,0-.73,3.6A1.9,1.9,0,0,0,41.53,11.4Z"/><path d="M50.65,14.6,50,14.47l.11-.5a2.35,2.35,0,0,1-1.77.29,2.43,2.43,0,0,1,1-4.77,2.37,2.37,0,0,1,1.51,1l.1-.51.67.14Zm-.4-1.42.39-1.95a1.86,1.86,0,0,0-1.38-1.13,1.83,1.83,0,0,0-.73,3.59A1.87,1.87,0,0,0,50.25,13.18Z"/><path d="M57.11,13.2l-.53,2.61-.67-.14.53-2.57a1.36,1.36,0,0,0-1.08-1.76,2,2,0,0,0-1.73.52L53,15.08l-.66-.14.92-4.53.67.14-.11.54a2.34,2.34,0,0,1,1.81-.35A1.92,1.92,0,0,1,57.11,13.2Z"/><path d="M62.44,17l-.67-.14.1-.49a2.36,2.36,0,0,1-1.76.28,2.43,2.43,0,0,1,1-4.76,2.32,2.32,0,0,1,1.51.95l.6-2.93.66.14ZM62,15.57l.39-1.94a1.85,1.85,0,0,0-1.38-1.14,1.83,1.83,0,0,0-.73,3.59A1.87,1.87,0,0,0,62,15.57Z"/><path d="M67.36,16.54c0,.65.42,1.12,1.3,1.3s1.3-.07,1.39-.55-.19-.72-.63-.88l-1-.38c-.73-.28-1.25-.73-1.09-1.49s1-1.2,2.08-1,1.8.79,1.67,1.84l-.62-.12c0-.61-.39-1-1.16-1.18s-1.21.08-1.3.52.12.66.74.89l.87.34c.64.24,1.27.67,1.1,1.53s-1.08,1.24-2.19,1-1.85-.92-1.79-2Z"/><path d="M74.87,19.52a3.59,3.59,0,0,1-1,0c-1-.21-1.44-.92-1.2-2.09l.47-2.32-1.2-.25.11-.58,1.21.25.34-1.68.66.14-.34,1.67,1.72.35-.12.58L73.8,15.2l-.48,2.32c-.16.82.09,1.22.78,1.36a2.93,2.93,0,0,0,.79,0Z"/><path d="M77.56,16.18a2.19,2.19,0,0,1,2-.54l-.13.64a2.11,2.11,0,0,0-2,.68l-.6,3-.67-.13.92-4.53.67.14Z"/><path d="M84.36,19.38l0,0v0l-3.83-.78a1.7,1.7,0,0,0,1.38,1.9,1.43,1.43,0,0,0,1.46-.43l.72.14a2.09,2.09,0,0,1-2.31.86,2.43,2.43,0,0,1,1-4.77,2.26,2.26,0,0,1,1.72,2.81A2.29,2.29,0,0,1,84.36,19.38ZM80.6,18.07l3.2.66a1.57,1.57,0,0,0-1.23-1.87A1.68,1.68,0,0,0,80.6,18.07Z"/><path d="M90.18,19.93l-.53,2.61L89,22.4l.53-2.57a1.36,1.36,0,0,0-1.08-1.76,2,2,0,0,0-1.73.52l-.65,3.21-.67-.13.92-4.53.67.14-.11.54a2.34,2.34,0,0,1,1.81-.35A1.92,1.92,0,0,1,90.18,19.93Z"/><path d="M95.45,23.87a2.33,2.33,0,0,1-4.6-.36l.69.13A1.49,1.49,0,0,0,92.87,25a1.52,1.52,0,0,0,1.9-1.3h0l.17-.79a2.55,2.55,0,0,1-1.84.3,2.39,2.39,0,0,1,1-4.68,2.49,2.49,0,0,1,1.57,1l.1-.49.67.14Zm-.34-1.72.36-1.8A1.94,1.94,0,0,0,94,19.16a1.79,1.79,0,0,0-.71,3.51A1.94,1.94,0,0,0,95.11,22.15Z"/><path d="M100.15,24.66a3.22,3.22,0,0,1-1,0c-1-.21-1.45-.92-1.21-2.09l.47-2.32L97.2,20l.11-.58,1.21.25L98.86,18l.67.14-.35,1.67,1.72.35-.12.58-1.71-.35-.48,2.32c-.16.83.09,1.23.78,1.36a2.93,2.93,0,0,0,.79,0Z"/><path d="M106.2,23.19l-.53,2.61-.67-.14.53-2.58a1.35,1.35,0,0,0-1.08-1.75,2,2,0,0,0-1.73.52l-.65,3.21-.67-.13,1.42-7,.66.14-.6,3a2.36,2.36,0,0,1,1.81-.35A1.92,1.92,0,0,1,106.2,23.19Z"/></g></g></svg>