<svg xmlns="http://www.w3.org/2000/svg" viewBox="0 0 80.17 76.94"><title>アセット 12</title><g id="レイヤー_2" data-name="レイヤー 2"><g id="レイヤー_1-2" data-name="レイヤー 1"><path d="M5.7,74.55,5.21,75l-.35-.37a2.3,2.3,0,0,1-.76,1.62,2.4,2.4,0,0,1-3.41-.09,2.42,2.42,0,0,1,1.68-4.11L2,71.7l.49-.47Zm-1.39-.47L2.92,72.65a1.87,1.87,0,0,0-1.72.49,1.8,1.8,0,0,0,0,2.56,1.8,1.8,0,0,0,2.56.08A1.88,1.88,0,0,0,4.31,74.08Z"/><path d="M8.21,68.43l1.85,1.92-.49.47L7.74,68.93a1.36,1.36,0,0,0-2.06-.11,2,2,0,0,0-.55,1.72L7.41,72.9l-.49.47L3.71,70.05l.49-.47.38.4a2.41,2.41,0,0,1,.75-1.7A1.93,1.93,0,0,1,8.21,68.43Z"/><path d="M14.36,66.19l-.49.48-.36-.37a2.3,2.3,0,0,1-.76,1.61,2.43,2.43,0,0,1-3.37-3.49A2.3,2.3,0,0,1,11,63.71L8.94,61.56l.49-.47ZM13,65.72l-1.37-1.43a1.85,1.85,0,0,0-1.73.49,1.84,1.84,0,0,0,2.55,2.64A1.88,1.88,0,0,0,13,65.72Z"/><path d="M21.1,56,23,57.89l-.49.48-1.82-1.9a1.32,1.32,0,0,0-2-.16A1.67,1.67,0,0,0,18.19,58a3,3,0,0,1,.45.38l1.85,1.91-.49.48-1.83-1.89a1.31,1.31,0,0,0-2-.17,1.71,1.71,0,0,0-.45,1.6L18,62.66l-.49.47-3.2-3.32.48-.47.37.38a1.93,1.93,0,0,1,.64-1.56,1.79,1.79,0,0,1,1.74-.48,2.22,2.22,0,0,1,.73-1.9A1.89,1.89,0,0,1,21.1,56Z"/><path d="M19.62,52.26a.46.46,0,0,1,0-.66.47.47,0,0,1,.66,0,.47.47,0,0,1,0,.67A.45.45,0,0,1,19.62,52.26Zm5,4-.49.47-3.2-3.32.48-.47Z"/><path d="M27.23,50.07,29.07,52l-.48.47-1.83-1.89a1.36,1.36,0,0,0-2.06-.11,2,2,0,0,0-.55,1.73l2.28,2.36-.49.47-3.21-3.32.49-.48.38.4a2.37,2.37,0,0,1,.75-1.69A1.91,1.91,0,0,1,27.23,50.07Z"/><path d="M33.38,47.83l-.49.47-.36-.37a2.28,2.28,0,0,1-.76,1.61,2.43,2.43,0,0,1-3.37-3.49A2.34,2.34,0,0,1,30,45.34L28,43.19l.49-.47ZM32,47.35,30.6,45.93a1.85,1.85,0,0,0-1.73.48,1.84,1.84,0,0,0,2.55,2.64A1.88,1.88,0,0,0,32,47.35Z"/><path d="M39.78,41.64l-.49.48-.36-.37a2.35,2.35,0,0,1-.75,1.62,2.43,2.43,0,0,1-3.38-3.5,2.31,2.31,0,0,1,1.64-.7l-.36-.38.49-.47Zm-1.4-.47L37,39.74a1.87,1.87,0,0,0-1.72.5,1.8,1.8,0,0,0,0,2.56,1.83,1.83,0,0,0,2.57.08A1.89,1.89,0,0,0,38.38,41.17Z"/><path d="M42.28,35.53l1.85,1.91-.49.47L41.81,36a1.35,1.35,0,0,0-2.06-.1,2,2,0,0,0-.54,1.72L41.48,40l-.49.47-3.2-3.32.49-.47.38.39a2.34,2.34,0,0,1,.74-1.69A1.91,1.91,0,0,1,42.28,35.53Z"/><path d="M48.43,33.29l-.49.47-.35-.37A2.38,2.38,0,0,1,46.82,35a2.43,2.43,0,0,1-3.37-3.5,2.33,2.33,0,0,1,1.64-.7L43,28.66l.49-.48ZM47,32.81l-1.37-1.42a1.88,1.88,0,0,0-1.73.48,1.84,1.84,0,0,0,2.55,2.64A1.85,1.85,0,0,0,47,32.81Z"/><path d="M50.84,29a1.35,1.35,0,0,0,1.8-.33c.54-.52.69-1.11.34-1.47a.8.8,0,0,0-1.08,0l-.88.6c-.64.45-1.31.62-1.85.06s-.42-1.5.38-2.27A1.76,1.76,0,0,1,52,25.26l-.45.44c-.49-.37-1.07-.25-1.63.29s-.62,1.05-.31,1.37.61.27,1.15-.11l.78-.53c.55-.38,1.26-.67,1.88,0s.41,1.59-.41,2.37a1.89,1.89,0,0,1-2.64.36Z"/><path d="M57.55,24.47a3.48,3.48,0,0,1-.61.81c-.76.73-1.57.67-2.4-.2l-1.65-1.7-.88.85-.41-.42.88-.85-1.19-1.23.49-.47L53,22.48l1.26-1.21.41.42-1.26,1.22L55,24.61c.58.61,1,.62,1.56.14a3.33,3.33,0,0,0,.47-.63Z"/><path d="M56.32,20.36A2.17,2.17,0,0,1,57,18.45l.45.46a2.15,2.15,0,0,0-.56,2L59,23.11l-.49.47-3.21-3.32.49-.47Z"/><path d="M62.81,16.57h0v0L60,19.31a1.69,1.69,0,0,0,2.34-.07,1.38,1.38,0,0,0,.47-1.44l.53-.51a2.09,2.09,0,0,1-.6,2.39,2.44,2.44,0,0,1-3.39-3.5,2.27,2.27,0,0,1,3.3.17ZM59.6,18.93,62,16.66a1.57,1.57,0,0,0-2.23,0A1.68,1.68,0,0,0,59.6,18.93Z"/><path d="M66.56,12.09,68.41,14l-.49.47-1.83-1.89A1.36,1.36,0,0,0,64,12.47a2,2,0,0,0-.55,1.73l2.28,2.35-.49.48L62.06,13.7l.49-.47.38.4a2.37,2.37,0,0,1,.75-1.69A1.91,1.91,0,0,1,66.56,12.09Z"/><path d="M72.79,10a2.17,2.17,0,0,1-.07,3.24,2.16,2.16,0,0,1-2.83.35l.5-.49a1.48,1.48,0,0,0,1.89-.31,1.53,1.53,0,0,0,0-2.31h0l-.56-.59A2.54,2.54,0,0,1,71,11.55a2.35,2.35,0,0,1-3.33-.09,2.32,2.32,0,0,1,0-3.35,2.47,2.47,0,0,1,1.71-.73L69,7l.49-.48Zm-1.61-.69L69.9,8a1.92,1.92,0,0,0-1.79.52,1.79,1.79,0,0,0,2.48,2.57A2,2,0,0,0,71.18,9.28Z"/><path d="M76.1,6.55a3.33,3.33,0,0,1-.6.81c-.77.74-1.58.67-2.41-.19l-1.65-1.7-.88.85-.41-.42L71,5,69.85,3.81l.48-.47,1.19,1.23,1.26-1.21.41.42L71.93,5,73.58,6.7c.58.6,1,.62,1.56.13a2.8,2.8,0,0,0,.47-.63Z"/><path d="M78.32.73l1.85,1.91-.49.47L77.85,1.22a1.35,1.35,0,0,0-2.06-.1,2,2,0,0,0-.55,1.72L77.52,5.2,77,5.67,72.1.56l.49-.47L74.7,2.27A2.34,2.34,0,0,1,75.44.58,1.91,1.91,0,0,1,78.32.73Z"/></g></g></svg>