<svg width="107" height="108" viewBox="0 0 107 108" fill="none" xmlns="http://www.w3.org/2000/svg">
<path d="M80.2791 52.059L79.28 52.0171L79.2464 52.8175L80.0203 53.0249L80.2791 52.059ZM104.844 58.641L104.585 59.6069L105.673 59.8984L105.833 58.7835L104.844 58.641ZM100.43 75.112L101.359 75.4834L101.777 74.4376L100.689 74.146L100.43 75.112ZM75.8657 68.5299L76.1245 67.564L75.3507 67.3566L74.9795 68.0666L75.8657 68.5299ZM46.8776 80.7289C31.6963 76.6611 24.1785 62.5297 28.3475 46.9707L26.4156 46.4531C21.9862 62.9841 30.0192 78.2823 46.36 82.6608L46.8776 80.7289ZM28.3475 46.9707C32.5165 31.4117 46.0929 22.9325 61.2742 27.0003L61.7918 25.0684C45.4511 20.6899 30.8451 29.9221 26.4156 46.4531L28.3475 46.9707ZM61.2742 27.0003C67.467 28.6596 72.077 31.8453 75.0818 36.1097C78.0898 40.3785 79.5404 45.8017 79.28 52.0171L81.2782 52.1008C81.5538 45.5241 80.021 39.6471 76.7167 34.9577C73.4093 30.2638 68.3782 26.8332 61.7918 25.0684L61.2742 27.0003ZM80.0203 53.0249L104.585 59.6069L105.102 57.6751L80.5379 51.093L80.0203 53.0249ZM105.833 58.7835C109.622 32.481 94.833 9.87646 67.9451 2.67187L67.4275 4.60373C93.3603 11.5524 107.494 33.2222 103.854 58.4984L105.833 58.7835ZM67.9451 2.67187C38.3251 -5.26479 10.0833 10.2841 2.13516 39.9471L4.06701 40.4648C11.7179 11.9114 38.8312 -3.05863 67.4275 4.60373L67.9451 2.67187ZM2.13516 39.9471C-5.81301 69.6101 10.8706 97.1968 40.4906 105.133L41.0083 103.202C12.412 95.5392 -3.58384 69.0181 4.06701 40.4648L2.13516 39.9471ZM40.4906 105.133C67.3785 112.338 91.4881 100.156 101.359 75.4834L99.5017 74.7405C90.0163 98.4506 66.9411 110.15 41.0083 103.202L40.4906 105.133ZM100.689 74.146L76.1245 67.564L75.6069 69.4959L100.171 76.0779L100.689 74.146ZM74.9795 68.0666C72.0974 73.5796 68.1295 77.5509 63.3901 79.7438C58.6557 81.9344 53.0704 82.3883 46.8776 80.7289L46.36 82.6608C52.9464 84.4256 59.0187 83.9702 64.23 81.5589C69.4363 79.1499 73.7022 74.8266 76.7519 68.9932L74.9795 68.0666Z" fill="#CCCCCC"/>
</svg>
