<svg xmlns="http://www.w3.org/2000/svg" viewBox="0 0 170.84 57.41"><title>アセット 5</title><g id="レイヤー_2" data-name="レイヤー 2"><g id="レイヤー_4" data-name="レイヤー 4"><path d="M14.78,48.45c.73,2.74-.34,5.41-4.17,7.29a9.87,9.87,0,0,0-2-1.44C12.08,52.87,13,51,12.41,48.88a2.14,2.14,0,0,0-2.69-1.74c-1.31.35-2.68,1.71-3.93,3.67.73,2.64,1.51,5.26,1.77,6l-2.29.61c-.14-.62-.51-2-1-3.8-.41.92-.9,1.93-1.2,2.51L1.3,54.56a28.06,28.06,0,0,0,2.23-3.8c-.14-.52-.28-1.14-.44-1.79-.57.34-1.36.84-2.18,1.36L0,48.21C.66,48,1.67,47.44,2.6,47c-.43-1.73-.78-3.24-.84-3.44L4,43.09c0,.38.27,1.51.57,2.8l.19-.12.88,1.12c-.14.34-.35.75-.55,1.21l.14.52a8.43,8.43,0,0,1,4.11-3.45C12.08,44.43,14.09,45.9,14.78,48.45Z"/><path d="M28,43.58c1.25,4.7.79,7.23-1.42,7.82a5.36,5.36,0,0,1-2.05.1A16.92,16.92,0,0,0,23.34,49a3.74,3.74,0,0,0,2.19.23c1.07-.29,1.15-2.05.44-4.7-.34-1.27-.69-1.62-1.25-1.46a8.93,8.93,0,0,0-1,.43,42.13,42.13,0,0,1-1.34,9.1L19.87,52a28.06,28.06,0,0,0,1.56-7.34c-1.13.52-2.18,1-2.53,1.14l-1-2.16c.95-.24,2.31-.77,3.67-1.29,0-.76,0-1.48,0-2.11a11.55,11.55,0,0,0-.2-1.54l2.62-.19a7.34,7.34,0,0,0-.11,1c0,.63,0,1.32,0,2,.46-.17.88-.3,1.24-.4C26.06,40.81,27.43,41.59,28,43.58Zm5.65,1-1.94,1.63a10.28,10.28,0,0,0-4.47-5.53L29,39.21A10.59,10.59,0,0,1,33.62,44.55ZM27.5,37.38l.89-.91a12.45,12.45,0,0,1,2.08,1.47l-.94,1A11.23,11.23,0,0,0,27.5,37.38ZM28.93,36l.87-.89a10.09,10.09,0,0,1,2.08,1.4l-.87,1A9,9,0,0,0,28.93,36Z"/><path d="M49.23,44.91a14.54,14.54,0,0,0-3.58-1c.24,1.66-.43,3.12-2.79,3.75-2.19.59-4.14,0-4.59-1.74-.4-1.49.65-2.86,3.14-3.52a10.74,10.74,0,0,1,1.41-.29c-.16-.52-.32-1.08-.49-1.68l-.61.16a14.74,14.74,0,0,1-3.67.59l-.51-2a14.21,14.21,0,0,0,3.88-.57l.36-.09c-.17-.58-.34-1.14-.48-1.68a27.39,27.39,0,0,1-4.24.75l-.55-2.05a23.67,23.67,0,0,0,4.24-.69c-.18-.68-.35-1.18-.53-1.67l2.43-.5c.07.47.21,1.11.32,1.57A33,33,0,0,0,46.5,33l.53,2c-.89.35-2.16.88-3.52,1.31.15.5.3,1.05.47,1.61a31.23,31.23,0,0,0,3.53-1.38l.54,2c-.84.38-2.15.85-3.52,1.3.21.75.42,1.47.58,2.1a15.83,15.83,0,0,1,4.61.74ZM43.32,44v0a5.27,5.27,0,0,0-1.47.21c-1.11.29-1.53.74-1.41,1.18s.77.71,1.79.43A1.35,1.35,0,0,0,43.32,44Z"/><path d="M65.89,40.44a15,15,0,0,0-3.59-1c.24,1.66-.42,3.12-2.79,3.75-2.19.59-4.13-.06-4.58-1.74-.4-1.5.65-2.86,3.14-3.53.5-.13,1-.22,1.4-.29-.15-.51-.32-1.07-.48-1.67l-.61.16a14.2,14.2,0,0,1-3.68.58l-.5-2a14.21,14.21,0,0,0,3.88-.57l.36-.1c-.17-.57-.34-1.14-.49-1.67a28.24,28.24,0,0,1-4.23.74l-.55-2a23.46,23.46,0,0,0,4.23-.7,15.68,15.68,0,0,0-.53-1.66l2.43-.5c.08.47.22,1.11.32,1.57a33.58,33.58,0,0,0,3.53-1.3l.53,2c-.88.35-2.16.88-3.51,1.31.15.5.3,1.05.47,1.61A34.31,34.31,0,0,0,64.16,32l.55,2c-.85.38-2.16.84-3.52,1.29.2.76.41,1.48.58,2.11a15.76,15.76,0,0,1,4.6.74ZM60,39.49v0a6.28,6.28,0,0,0-1.48.21c-1.1.3-1.52.75-1.4,1.19s.76.71,1.79.43A1.36,1.36,0,0,0,60,39.49Z"/><path d="M81.77,34.21c-.09.87-.16,1.8-.2,2.47-3.91.83-6.61-.47-7.42-3.5a6.89,6.89,0,0,1,1.65-5.79c-2.7,1-5.48,2.08-6.8,2.64l-.79-2.32c1.92-.65,9-3.12,12.12-4.16l.72,2-.66.21c-3.42,1.85-4.48,4.78-4,6.64C77,34.55,78.8,34.86,81.77,34.21Zm.35-4.77-.93,1a11.12,11.12,0,0,0-2-1.53L80,28A12.59,12.59,0,0,1,82.12,29.44ZM83.54,28l-.88,1a8.51,8.51,0,0,0-2.08-1.47l.88-.89A9.71,9.71,0,0,1,83.54,28Z"/><path d="M100.79,27.51a18.86,18.86,0,0,1,2.7,2.08c-.21.28-.88,1-1.48,1.63a18.27,18.27,0,0,0-3.18-2.78l1-.91a4.29,4.29,0,0,1-1.91-1,8.29,8.29,0,0,1-1,1.22,11.42,11.42,0,0,0-1.38-1l.13.45.13.45L91.1,28.93a3.2,3.2,0,0,0-.09-.47l-.73-2.7a2.8,2.8,0,0,0-.15-.44l4.65-1.24a3.1,3.1,0,0,0,.1.45l.53,2a9.41,9.41,0,0,0,1.21-1.41,17.05,17.05,0,0,1-2-3.72l-5.53,1.48.17.62.69-.17,3.86-1,.74-.21.38,1.42c-.24,0-.48.11-.75.18l-3.85,1c-.27.07-.48.13-.71.21a9.23,9.23,0,0,1-.13,5.37c-.36-.23-1.38-.73-2-1a6.88,6.88,0,0,0,0-4.65l-.6-2.25-.19-.57,7.32-2c-.11-.28-.2-.57-.3-.88s-.15-.42-.19-.51c.69-.15,1.72-.38,2.06-.43,0,.08,0,.25.1.44s.18.58.27.86L97.15,19a7,7,0,0,0-1.07-.27l.86-1.15a16.91,16.91,0,0,1,2.2.51l-.31.46c.41-.11.78-.21,1.07-.32l.45,1.68c-.37.07-.81.19-1.35.33l-2.53.68a15.75,15.75,0,0,0,1.21,2.37,9.37,9.37,0,0,0,.7-2.58l1.8.54a1.43,1.43,0,0,0,0,.22,13,13,0,0,1-1.22,3.43c.57.57,1,.82,1.31.74s.49-.45-.06-2.49c.51.32,1.4.8,1.91,1,.44,2.14-.09,3-1.27,3.36ZM89.68,30.36l2,.12a1.31,1.31,0,0,0-.06.27,10.35,10.35,0,0,1-1.11,3.79,17.34,17.34,0,0,0-2.07-.89A7.62,7.62,0,0,0,89.68,30.36Zm8-1.06c.66.14,1.73.34,2.27.43.25,1.74-.36,2.78-3.37,3.59-2.14.57-2.77.62-3.22.46s-.7-.62-1-1.63L91.87,30c0-.11-.09-.24-.12-.32.56-.1,1.48-.3,2.11-.41L94.94,28a17,17,0,0,1,2.68.88l-1.21,1.71A11.5,11.5,0,0,0,94,29.41l0,.11c0,.1.56,2.09.58,2.14a.24.24,0,0,0,.27.2,14.44,14.44,0,0,0,1.49-.35c.8-.22,1.18-.37,1.4-.75A1.91,1.91,0,0,0,97.73,29.3Zm-3.92-2.53-.25-.95-1.5.4.26,1Z"/><path d="M105.86,17.4c-.22.06-.42.11-.64.19L104.78,16c.21,0,.43-.1.65-.16l2.55-.68a6.55,6.55,0,0,0,.63-.19l.44,1.64-.64.15Zm.24,2.46-.7.21-.46-1.72c.22,0,.46-.1.71-.17l3-.81c.25-.07.47-.13.7-.21l.46,1.72c-.22,0-.46.1-.71.17Zm4,1.23a6.21,6.21,0,0,0-.62.14l-2.39.65a6.13,6.13,0,0,0-.61.18l-.4-1.5c.21,0,.41-.09.62-.15l2.39-.64c.2-.05.41-.11.61-.18Zm-.44.81c.2-.06.41-.11.61-.18l.39,1.48a6,6,0,0,0-.61.14l-2.4.65a4.69,4.69,0,0,0-.61.18l-.39-1.48c.21,0,.41-.1.61-.15Zm9.75-6.85.5,1.85-.71.18h0l1.73,6.47c.07.27.34,1.13.39,1.33.26,1-.42,1.87-2.49,2.42-.25-.33-.89-1.12-1.27-1.6a8.42,8.42,0,0,0,1.09-.21c.57-.15.73-.31.64-.64l-.21-.8-.5-1.87c-.22.2-.67.66-1.05,1a14.32,14.32,0,0,0-1.22-2c-.07.29-.15.58-.24.86l.74,2.79.38,1.26c.24.92-.38,1.74-2.27,2.25-.24-.33-.8-1-1.17-1.48a10.24,10.24,0,0,0,1.07-.2c.6-.16.74-.33.66-.65l-.21-.77-.21-.77a12.57,12.57,0,0,1-2.3,3.17,11.05,11.05,0,0,0-1-1.17l.53,2,.16.53-1.63.44-.16-.61-.8.21.16.61-1.64.44a5.19,5.19,0,0,0-.11-.54l-1.11-4.16c-.06-.2-.12-.37-.18-.54L111,23.76c0,.2.08.35.13.56l.47,1.74a10.25,10.25,0,0,0,2-2.31l-1.23.52-.66.31-.74-1.66.69-.2L110,16.52c-.06-.24-.14-.47-.2-.65l1.36-.37a10.43,10.43,0,0,0-.12-1.62l1.89-.09a1.11,1.11,0,0,0-.06.27c0,.29,0,.64,0,1l1.25-.33c.06.27.11.51.18.79l.86,3.18a13.41,13.41,0,0,1,1.59.27.44.44,0,0,0-.07.2c0,.4-.1.8-.17,1.18l.53-.48a10.87,10.87,0,0,1,1.38,1.75l-1.08-4-1.16.31c-.24.06-.47.13-.71.21l-.49-1.86c.22,0,.47-.11.71-.17l1.16-.32-.65-2.44c0-.17-.16-.54-.22-.7.41-.11,1.53-.37,1.94-.45,0,.19.09.48.14.67l.65,2.43,0,0Zm-9.21,12.22-.4-1.5L109,26l.4,1.49Zm1.57-10.39.21.78,1.12-.3-.21-.78Zm1.7,1.88-1.11.3.2.77,1.12-.29Zm-.3,3.34,1.08-.46-.19-.7-1.12.3Z"/><path d="M136.92,16.79l-1.23,1.83a6.68,6.68,0,0,0-4.94-.4c-1.26.34-2,1.08-1.8,1.9.35,1.29,2.39,1.43,6.52.23a9.86,9.86,0,0,0-.2,2.45c-4.8,1.28-7.84.65-8.54-2-.59-2.2,1.35-3.9,3.62-4.51a7.22,7.22,0,0,1,2.41-.23c-.66-.58-1.32-1.23-2-1.94a39.68,39.68,0,0,1-5.85,1.45l-.69-2.19a25.77,25.77,0,0,0,5-1,29.5,29.5,0,0,1-1.86-2.47l2.34-.83a26.85,26.85,0,0,0,1.71,2.53,23.31,23.31,0,0,0,3.8-1.85l.89,2.06a29,29,0,0,1-3.24,1.57A15.55,15.55,0,0,0,136.92,16.79Z"/><path d="M156.11,12.49l.48,2.55a6.6,6.6,0,0,1-2.68,1.62A2,2,0,0,1,151.33,15c-.44-1.63-.71-5-.91-5.71s-.39-.64-.72-.55c-.71.19-2.42,2.29-3.66,4.48.72,2.62,1.51,5.24,1.77,6l-2.3.61c-.13-.62-.51-2-1-3.8-.41.92-.9,1.93-1.2,2.51L141.54,17a28.06,28.06,0,0,0,2.24-3.8c-.14-.52-.29-1.14-.45-1.79l-2.18,1.36-.9-2.12c.65-.26,1.66-.77,2.6-1.25-.43-1.73-.79-3.23-.84-3.44l2.23-.43c0,.38.27,1.52.56,2.8L145,8.2l.89,1.11c-.14.34-.35.75-.55,1.21l0,.14c1.55-2.19,3.06-4,4.2-4.35a2.25,2.25,0,0,1,3,1.74c.31,1.15.65,5,.82,5.65.12.43.29.57.64.47A4.82,4.82,0,0,0,156.11,12.49Z"/><path d="M170.67,8.18c.81,3-1.4,5.29-4.38,6.08-2,.54-4,0-4.49-1.64a2.5,2.5,0,0,1,2-3c1.93-.52,3.42.06,4.06,1.5a2.47,2.47,0,0,0,.54-2.39c-.37-1.39-1.48-1.88-3.11-1.45a6.94,6.94,0,0,0-4.55,4.23l-2-1.23c1.2-1.62,3.24-4.89,4.63-7.15-1.35.58-2.86,1.17-4.11,1.59l-.93-2.18A49.07,49.07,0,0,0,165.17.19a1,1,0,0,0,.27-.19l1.87,1.13a5,5,0,0,0-.4.4c-.74.94-2,2.75-3.23,4.61a5.46,5.46,0,0,1,1.61-.72C167.67,4.79,170,5.57,170.67,8.18Zm-4.6,4.07a1.24,1.24,0,0,0-1.61-1,.72.72,0,0,0-.61.8c.13.48.78.59,1.63.36Z"/></g></g></svg>