<svg width="101" height="106" viewBox="0 0 101 106" fill="none" xmlns="http://www.w3.org/2000/svg">
<path d="M45.6363 29.1242L45.8951 28.1583L44.9292 27.8995L44.6704 28.8654L45.6363 29.1242ZM93.6293 41.9839L93.3705 42.9498L94.3364 43.2087L94.5952 42.2427L93.6293 41.9839ZM99.2982 20.8272L100.264 21.0861L100.523 20.1201L99.557 19.8613L99.2982 20.8272ZM27.3087 1.53771L27.5675 0.571788L26.6016 0.312969L26.3428 1.27889L27.3087 1.53771ZM1.43717 98.0917L0.471239 97.8328L0.21242 98.7988L1.17835 99.0576L1.43717 98.0917ZM25.4337 104.522L25.1748 105.487L26.1408 105.746L26.3996 104.78L25.4337 104.522ZM34.5648 70.4436L34.8236 69.4777L33.8577 69.2189L33.5989 70.1848L34.5648 70.4436ZM76.0262 81.5532L75.7674 82.5191L76.7333 82.7779L76.9921 81.812L76.0262 81.5532ZM81.619 60.6805L82.5849 60.9393L82.8438 59.9734L81.8778 59.7146L81.619 60.6805ZM40.1576 49.5709L39.1917 49.3121L38.9329 50.2781L39.8988 50.5369L40.1576 49.5709ZM45.3775 30.0902L93.3705 42.9498L93.8881 41.018L45.8951 28.1583L45.3775 30.0902ZM94.5952 42.2427L100.264 21.0861L98.3323 20.5684L92.6634 41.7251L94.5952 42.2427ZM99.557 19.8613L27.5675 0.571788L27.0499 2.50364L99.0394 21.7932L99.557 19.8613ZM26.3428 1.27889L0.471239 97.8328L2.40309 98.3505L28.2746 1.79653L26.3428 1.27889ZM1.17835 99.0576L25.1748 105.487L25.6925 103.556L1.69598 97.1257L1.17835 99.0576ZM26.3996 104.78L35.5307 70.7025L33.5989 70.1848L24.4677 104.263L26.3996 104.78ZM34.306 71.4096L75.7674 82.5191L76.285 80.5873L34.8236 69.4777L34.306 71.4096ZM76.9921 81.812L82.5849 60.9393L80.6531 60.4217L75.0603 81.2944L76.9921 81.812ZM81.8778 59.7146L40.4164 48.605L39.8988 50.5369L81.3602 61.6464L81.8778 59.7146ZM41.1235 49.8298L46.6022 29.383L44.6704 28.8654L39.1917 49.3121L41.1235 49.8298Z" fill="#CCCCCC"/>
</svg>
