<svg width="109" height="135" viewBox="0 0 109 135" fill="none" xmlns="http://www.w3.org/2000/svg">
<path d="M55.3012 106.088L56.2039 105.658L55.9261 105.075L55.2804 105.088L55.3012 106.088ZM68.3547 133.479L67.452 133.909L67.8957 134.84L68.8126 134.368L68.3547 133.479ZM89.5407 122.568L89.9986 123.457L90.8584 123.014L90.4445 122.14L89.5407 122.568ZM79.1415 100.606L78.6801 99.7185L77.8254 100.163L78.2377 101.034L79.1415 100.606ZM106.443 67.8962C114.122 39.2379 97.7181 10.6495 67.9451 2.67187L67.4275 4.60373C96.1549 12.3012 111.898 39.8084 104.511 67.3786L106.443 67.8962ZM67.9451 2.67187C38.3124 -5.26819 9.81366 11.2906 2.13516 39.9471L4.06701 40.4648C11.4549 12.8928 38.8439 -3.05523 67.4275 4.60373L67.9451 2.67187ZM2.13516 39.9471C-5.54335 68.6037 10.8579 97.1934 40.4906 105.133L41.0083 103.202C12.4247 95.5426 -3.32086 68.0367 4.06701 40.4648L2.13516 39.9471ZM40.4906 105.133C45.5335 106.485 50.4665 107.189 55.3219 107.088L55.2804 105.088C50.6475 105.185 45.9048 104.514 41.0083 103.202L40.4906 105.133ZM54.3984 106.518L67.452 133.909L69.2574 133.049L56.2039 105.658L54.3984 106.518ZM68.8126 134.368L89.9986 123.457L89.0828 121.679L67.8968 132.59L68.8126 134.368ZM90.4445 122.14L80.0453 100.178L78.2377 101.034L88.6369 122.996L90.4445 122.14ZM79.6028 101.493C92.3992 94.839 102.373 83.0837 106.443 67.8962L104.511 67.3786C100.59 82.0093 90.9925 93.3162 78.6801 99.7185L79.6028 101.493ZM28.3475 46.9707C32.2925 32.2477 46.4299 22.8706 61.4542 26.8963L61.9718 24.9645C45.7581 20.62 30.6126 30.7899 26.4156 46.4531L28.3475 46.9707ZM61.4542 26.8963C76.4785 30.9221 84.0333 46.1116 80.0883 60.8346L82.0201 61.3522C86.217 45.6891 78.1856 29.3089 61.9718 24.9645L61.4542 26.8963ZM80.0883 60.8346C76.1433 75.5576 62.0059 84.9347 46.9816 80.909L46.4639 82.8408C62.6777 87.1853 77.8232 77.0154 82.0201 61.3522L80.0883 60.8346ZM46.9816 80.909C31.9573 76.8832 24.4025 61.6937 28.3475 46.9707L26.4156 46.4531C22.2187 62.1162 30.2502 78.4964 46.4639 82.8408L46.9816 80.909Z" fill="#CCCCCC"/>
</svg>
