<svg xmlns="http://www.w3.org/2000/svg" viewBox="0 0 228.03 254.78"><title>アセット 8</title><g id="レイヤー_2" data-name="レイヤー 2"><g id="レイヤー_1-2" data-name="レイヤー 1"><path d="M226.54,109.07,167.92,93.36c1.61-18.42-5.84-33.35-30.67-40-20.69-5.54-36.27-1.22-40.33,14C93.32,80.76,101.4,89.21,119,98l30.92,15.67c40.7,20.51,63.57,45.49,52.76,85.84-12.56,46.89-59,65.51-117.57,49.81C32.35,235.18-8.49,197.25,1.52,137.84l58.62,15.71c-1.75,21.71,12.32,39.52,39.91,46.92,20.69,5.54,35.23.94,38.74-12.17,2.22-8.27,0-18.1-19.29-27.34L83.1,142.34C39.57,120,23.48,93.1,33.46,55.86,46,9,91.72-9.84,146.9,4.94,184.83,15.1,237.59,44.39,226.54,109.07Z"/></g></g></svg>