<svg xmlns="http://www.w3.org/2000/svg" viewBox="0 0 142.89 185.47"><title>アセット 7</title><g id="レイヤー_2" data-name="レイヤー 2"><g id="レイヤー_1-2" data-name="レイヤー 1"><path d="M110.62,0l29.93,111.71c9.33,34.8-10,61.57-44.8,70.89-33.65,9-63.29-3.64-72.85-32l36.62-9.81c4.6,9.81,14.1,14.13,27.83,10.45,12.59-3.37,20.35-13.79,16.3-28.9l-3.55-13.28c-6.9,7.25-15.94,12.86-28.31,16.17-30,8-61.48-8.79-69.52-38.78-9.08-33.88,10-63.3,40-71.33,12.36-3.31,23.07-2.75,32.72.31L73.53,9.94ZM91.51,77l-7.85-29.3C74.41,41.6,66,41.39,58,43.54,42.9,47.59,34.38,60.67,38.67,76.69c3.25,12.14,17.66,21,32.77,17C79.45,91.53,86.56,86.92,91.51,77Z"/></g></g></svg>